#Comment line ignore any data following # character 
#Hierarchical Translation and Rotation (.htr) file 
[Header]	
#Header keywords are followed by a single value 
FileType HTR		#Single word string
DataType HTRS		#Translation followed by rotation and scale data
FileVersion 1		#integer
NumSegments 23		#integer
NumFrames 4		#integer
DataFrameRate 30		#integer, data frame rate in this file
EulerRotationOrder ZYX
CalibrationUnits mm
RotationUnits Degrees
GlobalAxisofGravity Y
BoneLengthAxis Y
ScaleFactor 1.00
[SegmentNames&Hierarchy]
#CHILD	PARENT
MASTER GLOBAL
weapon MASTER
arm_lock_bottom_part1 weapon
arm_lock_bottom_part2 weapon
arm_lock_bottom_part3 weapon
arm_lock_bottom_part4 weapon
arm_lock_top_part1 weapon
arm_lock_top_part2 weapon
arm_lock_top_part3 weapon
front_lower_left_part1 weapon
front_lower_right_part1 weapon
front_top_left_part weapon
front_top_right_part1 weapon
scope_part1 weapon
scope_part2 weapon
front_lower_left_part2 front_lower_left_part1
front_lower_left_part3 front_lower_left_part2
front_lower_right_part2 front_lower_right_part1
front_lower_right_part3 front_lower_right_part2
front_top_left_part2 front_top_left_part
front_top_left_part3 front_top_left_part2
front_top_right_part2 front_top_right_part1
front_top_right_part3 front_top_right_part2
[BasePosition]
#SegmentName Tx, Ty, Tz, Rx, Ry, Rz, BoneLength
MASTER 0.000000 0.000000 0.000000 -90.000000 0.000000 0.000000 10.000000 
weapon 0.000000 0.000000 0.000000 0.000000 0.000000 0.000000 10.000000 
arm_lock_bottom_part1 0.000000 0.000000 0.000000 0.000000 0.000000 0.000000 10.000000 
arm_lock_bottom_part2 0.000000 0.000000 0.000000 0.000000 0.000000 0.000000 10.000000 
arm_lock_bottom_part3 0.000000 0.000000 0.000000 0.000000 0.000000 0.000000 10.000000 
arm_lock_bottom_part4 0.000000 0.000000 0.000000 0.000000 0.000000 0.000000 10.000000 
arm_lock_top_part1 0.000000 0.000000 0.000000 0.000000 0.000000 0.000000 10.000000 
arm_lock_top_part2 0.000000 0.000000 0.000000 0.000000 0.000000 0.000000 10.000000 
arm_lock_top_part3 0.000000 0.000000 0.000000 0.000000 0.000000 0.000000 10.000000 
front_lower_left_part1 0.000000 0.000000 0.000000 0.000000 0.000000 0.000000 10.000000 
front_lower_right_part1 0.000000 0.000000 0.000000 0.000000 0.000000 0.000000 10.000000 
front_top_left_part 0.000000 0.000000 0.000000 0.000000 0.000000 0.000000 10.000000 
front_top_right_part1 0.000000 0.000000 0.000000 0.000000 0.000000 0.000000 10.000000 
scope_part1 0.000000 0.000000 0.000000 0.000000 0.000000 0.000000 10.000000 
scope_part2 0.000000 0.000000 0.000000 0.000000 0.000000 0.000000 10.000000 
front_lower_left_part2 0.000000 0.000000 0.000000 0.000000 0.000000 0.000000 10.000000 
front_lower_left_part3 0.000000 0.000000 0.000000 0.000000 0.000000 0.000000 10.000000 
front_lower_right_part2 0.000000 0.000000 0.000000 0.000000 0.000000 0.000000 10.000000 
front_lower_right_part3 0.000000 0.000000 0.000000 0.000000 0.000000 0.000000 10.000000 
front_top_left_part2 0.000000 0.000000 0.000000 0.000000 0.000000 0.000000 10.000000 
front_top_left_part3 0.000000 0.000000 0.000000 0.000000 0.000000 0.000000 10.000000 
front_top_right_part2 0.000000 0.000000 0.000000 0.000000 0.000000 0.000000 10.000000 
front_top_right_part3 0.000000 0.000000 0.000000 0.000000 0.000000 0.000000 10.000000 
#Beginning of Data. Separated by tabs
#Fr	Tx	Ty	Tz	Rx	Ry	Rz	SF
[MASTER]
1 0.000000 -0.000019 0.000002 0.002458 -0.000000 0.000000 0.000019
2 0.000000 -0.000019 0.000002 0.002458 -0.000000 0.000000 0.000019
3 0.000000 -0.000019 0.000002 0.002458 -0.000000 0.000000 0.000019
4 0.000000 -0.000019 0.000002 0.002458 -0.000000 0.000000 0.000019
[weapon]
1 10.182476 -168.977936 -13.084106 -0.002473 -0.000000 -0.000020 169.789337
2 10.182457 -168.977936 -13.084259 -0.002473 -0.000000 -0.000020 169.789352
3 10.182476 -168.977936 -13.084106 -0.002473 -0.000000 -0.000020 169.789337
4 10.182457 -168.977890 -13.084106 -0.002473 -0.000000 -0.000020 169.789291
[arm_lock_bottom_part1]
1 -48.819977 98.566170 -83.498993 179.999985 0.000004 9.388626 138.096924
2 -48.819977 98.566132 -83.498993 179.999985 0.000004 9.388626 138.096893
3 -48.819977 98.566170 -83.498993 179.999985 0.000004 9.388626 138.096924
4 -48.819977 98.566132 -83.498993 179.999985 0.000004 9.388626 138.096893
[arm_lock_bottom_part2]
1 -49.022713 58.781967 -78.526535 -179.999985 -0.000001 6.576765 109.658394
2 -49.022732 58.781929 -78.526535 -179.999985 -0.000001 6.576765 109.658379
3 -49.022713 58.781967 -78.526535 -179.999985 -0.000001 6.576765 109.658394
4 -49.022751 58.781929 -78.526535 -179.999985 -0.000001 6.576765 109.658386
[arm_lock_bottom_part3]
1 -51.266403 -16.798210 -66.920395 -179.999985 -0.000001 4.326176 85.957916
2 -51.266403 -16.798248 -66.920395 -179.999985 -0.000001 4.326176 85.957924
3 -51.266403 -16.798210 -66.920395 -179.999985 -0.000001 4.326176 85.957916
4 -51.266422 -16.798210 -66.920395 -179.999985 -0.000001 4.326176 85.957924
[arm_lock_bottom_part4]
1 -40.078083 -93.503075 -59.330063 -179.999985 -0.000000 1.322129 117.767281
2 -40.078083 -93.503113 -59.329987 -179.999985 -0.000000 1.322129 117.767281
3 -40.078083 -93.503075 -59.330063 -179.999985 -0.000000 1.322129 117.767281
4 -40.078083 -93.503113 -59.330063 -179.999985 -0.000000 1.322129 117.767319
[arm_lock_top_part1]
1 -47.532558 61.554413 78.379364 0.000000 -0.000000 -9.999999 110.415642
2 -47.532558 61.554371 78.379364 0.000000 -0.000000 -9.999999 110.415619
3 -47.532558 61.554413 78.379364 0.000000 -0.000000 -9.999999 110.415642
4 -47.532558 61.554371 78.379364 0.000000 -0.000000 -9.999999 110.415619
[arm_lock_top_part2]
1 -45.622711 13.709869 63.393555 0.000000 -0.000000 -7.722126 79.297760
2 -45.622711 13.709869 63.393555 0.000000 -0.000000 -7.722126 79.297760
3 -45.622711 13.709869 63.393555 0.000000 -0.000000 -7.722126 79.297760
4 -45.622730 13.709869 63.393555 0.000000 -0.000000 -7.722126 79.297775
[arm_lock_top_part3]
1 -43.788567 -73.747208 72.061615 0.000000 0.000000 -4.533067 112.022171
2 -43.788544 -73.747231 72.061615 0.000000 0.000000 -4.533067 112.022171
3 -43.788567 -73.747208 72.061615 0.000000 0.000000 -4.533067 112.022171
4 -43.788544 -73.747208 72.061615 0.000000 0.000000 -4.533067 112.022163
[front_lower_left_part1]
1 -46.798492 475.070953 -43.538815 -17.980034 0.000051 32.194077 479.351776
2 -46.798492 475.070953 -43.538742 -16.098898 -5.560766 13.552811 479.351776
3 -46.798492 475.070953 -43.538815 -14.217873 -11.121610 -5.088200 479.351776
4 -46.798473 475.070892 -43.538815 -14.491925 -0.647486 29.681051 479.351715
[front_lower_right_part1]
1 26.433487 475.070953 -43.538815 -17.167915 0.000006 -27.317904 477.793640
2 26.433468 475.070953 -43.538815 -15.967118 4.458116 -12.058498 477.793640
3 26.433487 475.070953 -43.538815 -14.730978 8.916250 3.200866 477.793640
4 26.433468 475.070892 -43.538815 -14.686010 -0.045447 -27.493233 477.793579
[front_top_left_part]
1 -47.897167 494.788635 7.030945 -0.000000 0.000003 -0.000001 497.151245
2 -47.897167 494.788635 7.030945 -0.000000 0.000003 -0.000001 497.151245
3 -47.897167 494.788635 7.030945 -0.000000 0.000003 -0.000001 497.151245
4 -47.897167 494.788605 7.031097 -0.000000 0.000003 -0.000001 497.151245
[front_top_right_part1]
1 27.532156 494.788727 7.030945 0.000000 -0.000000 -0.000000 495.604004
2 27.532215 494.788727 7.030945 0.000000 -0.000000 -0.000000 495.604004
3 27.532156 494.788727 7.030945 0.000000 -0.000000 -0.000000 495.604004
4 27.532177 494.788757 7.030945 0.000000 -0.000000 -0.000000 495.604034
[scope_part1]
1 -10.754318 87.338936 156.453094 -5.094402 -15.675614 1.379905 179.502960
2 -10.754337 87.338905 156.453094 -5.094402 -15.675614 1.379905 179.502960
3 -10.754318 87.338936 156.453094 -5.094402 -15.675614 1.379905 179.502960
4 -10.754337 87.338905 156.453094 -5.094402 -15.675614 1.379905 179.502960
[scope_part2]
1 -10.754356 82.597351 156.859894 -5.715013 30.846378 -2.937432 177.603500
2 -10.754356 82.597305 156.859894 -5.715013 30.846378 -2.937432 177.603470
3 -10.754356 82.597351 156.859894 -5.715013 30.846378 -2.937432 177.603500
4 -10.754375 82.597305 156.859894 -5.715013 30.846378 -2.937432 177.603485
[front_lower_left_part2]
1 -55.193516 141.618408 32.268219 0.000000 -0.000000 15.371656 155.381271
2 -55.193516 141.618317 32.268372 0.000000 -0.000000 9.274583 155.381210
3 -55.193516 141.618576 32.268219 0.000000 0.000000 -4.138951 155.381409
4 -55.193596 141.618408 32.268372 0.000000 0.000000 -17.552486 155.381332
[front_lower_left_part3]
1 -10.943831 108.509483 -11.124725 35.646374 -8.890635 -24.057442 109.625885
2 -10.943755 108.509552 -11.124877 33.827053 -8.188554 -25.044685 109.625969
3 -10.943737 108.509590 -11.124725 29.780951 -6.635971 -27.204704 109.625984
4 -10.943717 108.509521 -11.124725 25.674992 -5.074012 -29.351177 109.625916
[front_lower_right_part2]
1 55.193649 141.618240 32.268219 0.000000 0.000000 -19.035873 155.381149
2 55.193687 141.618347 32.268219 0.000000 0.000000 -19.035873 155.381256
3 55.193707 141.618271 32.268219 0.000000 0.000000 -19.035873 155.381195
4 55.193668 141.618347 32.268372 0.000000 0.000000 -19.035873 155.381287
[front_lower_right_part3]
1 10.943831 108.509552 -11.124725 35.198376 10.732838 21.429367 109.625961
2 10.943947 108.509369 -11.124725 34.490097 8.661036 24.381048 109.625786
3 10.943945 108.509590 -11.124725 32.545269 4.032217 30.771307 109.626007
4 10.943831 108.509521 -11.124877 30.079861 -0.645972 37.088844 109.625931
[front_top_left_part2]
1 -88.355896 137.389755 57.356110 9.860997 0.360850 20.210054 173.125473
2 -67.747520 137.434006 57.077637 9.686523 1.951717 10.822829 163.510513
3 -47.139053 137.478027 55.090637 9.215495 3.542617 1.435539 155.426102
4 -103.190018 110.728912 49.752499 8.203630 -1.450824 32.107052 159.324768
[front_top_left_part3]
1 -28.216476 149.656982 49.959641 -26.075756 -1.575345 -61.752136 160.278961
2 -28.216438 149.656830 49.959717 -25.858873 -3.818076 -66.359360 160.278839
3 -28.216467 149.656906 49.959717 -25.054892 -7.633787 -74.400276 160.278915
4 -28.216553 149.656738 49.959869 -23.818008 -11.049456 -82.005989 160.278839
[front_top_right_part2]
1 82.208405 137.572998 52.660522 8.053179 1.221395 -23.359798 168.694046
2 59.155464 137.555008 53.927612 8.043026 -0.170246 -13.584393 159.150665
3 36.102486 137.474289 55.194702 7.994444 -1.561934 -3.809185 152.476303
4 87.598495 119.440689 45.413055 7.100246 1.838770 -29.224819 154.925537
[front_top_right_part3]
1 28.216480 149.656982 49.959564 -25.958696 3.004996 64.682632 160.278946
2 28.216438 149.657059 49.959564 -25.727982 4.670475 68.127876 160.279007
3 28.216515 149.656830 49.959717 -24.987257 7.865960 74.902130 160.278854
4 28.216515 149.656982 49.959488 -23.516970 11.705161 83.531982 160.278931
